Coordinates
version=1
nRows=27
nColumns=12
inDegrees=yes

Units are S.I. units (second, meters, Newtons, ...)
Angles are in degrees

endheader
time	SC_y	SC_z	SC_x	AC_y	AC_z	AC_x	GH_y	GH_z	GH_yy	EL_x	PS_y
       0.0              -35.12          28.79          16.74           41.0         -5.466         -7.737          65.01           21.2         -172.5          29.42          83.02
   0.01325              -35.12          28.79          16.75          41.01         -5.465         -7.734          64.99          21.21         -172.5          29.42          83.01
    0.0265              -35.12          28.79          16.76          41.01         -5.464         -7.732          64.97          21.21         -172.4          29.42           83.0
   0.03976              -35.12          28.78          16.77          41.02         -5.464         -7.729          64.95          21.22         -172.4          29.42           83.0
   0.05301              -35.12          28.78          16.78          41.02         -5.463         -7.726          64.93          21.23         -172.3          29.43          82.99
   0.06626              -35.13          28.77          16.79          41.03         -5.462         -7.723          64.91          21.23         -172.3          29.43          82.98
   0.07951              -35.13          28.77           16.8          41.03         -5.461         -7.719          64.88          21.24         -172.2          29.43          82.97
   0.09277              -35.13          28.76          16.81          41.04          -5.46         -7.716          64.86          21.25         -172.2          29.43          82.96
     0.106              -35.13          28.76          16.83          41.04         -5.459         -7.712          64.83          21.26         -172.1          29.43          82.95
    0.1193              -35.13          28.75          16.84          41.05         -5.458         -7.708           64.8          21.27         -172.0          29.44          82.94
    0.1325              -35.14          28.75          16.86          41.06         -5.457         -7.704          64.77          21.28         -171.9          29.44          82.93
    0.1458              -35.14          28.74          16.87          41.06         -5.456         -7.699          64.73          21.29         -171.9          29.44          82.91
     0.159              -35.14          28.73          16.89          41.07         -5.454         -7.694           64.7           21.3         -171.8          29.44           82.9
    0.1723              -35.14          28.73          16.91          41.08         -5.453         -7.688          64.66          21.31         -171.7          29.45          82.88
    0.1855              -35.15          28.72          16.93          41.09         -5.451         -7.682          64.61          21.32         -171.6          29.45          82.87
    0.1988              -35.15          28.71          16.95           41.1         -5.449         -7.676          64.57          21.34         -171.5          29.45          82.85
     0.212              -35.15           28.7          16.97          41.11         -5.448         -7.669          64.52          21.35         -171.4          29.46          82.83
    0.2253              -35.16          28.69           17.0          41.12         -5.445         -7.661          64.46          21.37         -171.2          29.46          82.81
    0.2385              -35.16          28.68          17.03          41.14         -5.443         -7.653           64.4          21.39         -171.1          29.47          82.79
    0.2518              -35.17          28.67          17.06          41.15         -5.441         -7.644          64.33          21.41         -170.9          29.47          82.76
     0.265              -35.17          28.65          17.09          41.17         -5.438         -7.634          64.26          21.43         -170.8          29.48          82.73
    0.2783              -35.18          28.64          17.13          41.19         -5.435         -7.623          64.18          21.45         -170.6          29.48           82.7
    0.2916              -35.18          28.62          17.17          41.21         -5.432          -7.61          64.09          21.48         -170.4          29.49          82.67
    0.3048              -35.19           28.6          17.21          41.23         -5.428         -7.597          63.99          21.51         -170.1           29.5          82.63
    0.3181               -35.2          28.58          17.27          41.25         -5.424         -7.582          63.88          21.54         -169.9           29.5          82.59
    0.3313              -35.21          28.56          17.32          41.28          -5.42         -7.565          63.76          21.58         -169.6          29.51          82.55
    0.3446              -35.22          28.53          17.38          41.31         -5.414         -7.546          63.62          21.62         -169.3          29.52          82.49
